<svg style="position: absolute; width: 0; height: 0; overflow: hidden;" version="1.1" xmlns="http://www.w3.org/2000/svg" xmlns:xlink="http://www.w3.org/1999/xlink">
<defs>
<symbol id="icon-mail" viewBox="0 0 512 512" fill="currentColor">
<path d="M467 76H45C20.137 76 0 96.262 0 121v270c0 24.885 20.285 45 45 45h422c24.655 0 45-20.03 45-45V121c0-24.694-20.057-45-45-45zm-6.302 30L287.82 277.967c-8.5 8.5-19.8 13.18-31.82 13.18s-23.32-4.681-31.848-13.208L51.302 106h409.396zM30 384.894V127.125L159.638 256.08 30 384.894zM51.321 406l129.587-128.763 22.059 21.943c14.166 14.166 33 21.967 53.033 21.967s38.867-7.801 53.005-21.939l22.087-21.971L460.679 406H51.321zM482 384.894 352.362 256.08 482 127.125v257.769z"></path>
</symbol>
<symbol id="icon-mapmarker" viewBox="0 0 64 64" fill="currentColor">
<path d="M32 0A24.032 24.032 0 0 0 8 24c0 17.23 22.36 38.81 23.31 39.72a.99.99 0 0 0 1.38 0C33.64 62.81 56 41.23 56 24A24.032 24.032 0 0 0 32 0zm0 35a11 11 0 1 1 11-11 11.007 11.007 0 0 1-11 11z"></path>
</symbol>
<symbol id="icon-clock" viewBox="0 0 24 24" fill="currentColor">
<path d="M11.994 0C5.381 0 0 5.381 0 11.994S5.381 23.99 11.994 23.99 23.99 18.607 23.99 11.994 18.607 0 11.994 0zm0 2c5.532 0 10.002 4.462 10.002 9.994s-4.47 10.004-10.002 10.004S2 17.526 2 11.994 6.462 2 11.994 2zm0 2.996A1 1 0 0 0 10.998 6v5.994a1 1 0 0 0 .322.738l4.211 4.215a.998.998 0 0 0 1.416 0 .998.998 0 0 0 0-1.416l-3.949-3.943V6a1 1 0 0 0-.996-1.004h-.008z"></path>
</symbol>
<symbol id="icon-phone" viewBox="0 0 32 32" fill="currentColor">
<path d="M29.393 23.36c-.874-.733-6-3.979-6.852-3.83-.4.071-.706.412-1.525 1.389a11.687 11.687 0 0 1-1.244 1.347 10.757 10.757 0 0 1-2.374-.88 14.7 14.7 0 0 1-6.784-6.786 10.757 10.757 0 0 1-.88-2.374 11.687 11.687 0 0 1 1.347-1.244c.976-.819 1.318-1.123 1.389-1.525.149-.854-3.1-5.978-3.83-6.852C8.334 2.243 8.056 2 7.7 2 6.668 2 2 7.772 2 8.52c0 .061.1 6.07 7.689 13.791C17.41 29.9 23.419 30 23.48 30c.748 0 6.52-4.668 6.52-5.7 0-.356-.243-.634-.607-.94zM23 15h2a8.009 8.009 0 0 0-8-8v2a6.006 6.006 0 0 1 6 6z"></path>
<path d="M28 15h2A13.015 13.015 0 0 0 17 2v2a11.013 11.013 0 0 1 11 11z"></path>
</symbol>
<symbol id="icon-sitemap" viewBox="0 0 410 410" fill="currentColor">
<path d="M388.661 278.007h-11.878v-46.229c0-18.24-14.838-33.076-33.076-33.076H216.736v-49.919h59.84c9.555 0 17.301-7.748 17.301-17.302V59.384c0-9.554-7.746-17.301-17.301-17.301H133.423c-9.554 0-17.301 7.747-17.301 17.301v72.097c0 9.554 7.747 17.302 17.301 17.302h59.84v49.919H66.293c-18.238 0-33.076 14.836-33.076 33.076v46.229H21.339C9.553 278.007 0 287.562 0 299.347v47.229c0 11.786 9.554 21.34 21.339 21.34h47.229c11.786 0 21.34-9.554 21.34-21.34v-47.229c0-11.785-9.554-21.34-21.34-21.34H56.691v-46.229c0-5.295 4.308-9.604 9.602-9.604h126.971v55.833h-11.879c-11.785 0-21.338 9.555-21.338 21.34v47.229c0 11.786 9.554 21.34 21.338 21.34h47.23c11.785 0 21.339-9.554 21.339-21.34v-47.229c0-11.785-9.556-21.34-21.339-21.34h-11.879v-55.833h126.971c5.294 0 9.602 4.311 9.602 9.604v46.229h-11.877c-11.785 0-21.34 9.555-21.34 21.34v47.229c0 11.786 9.555 21.34 21.34 21.34h47.229c11.786 0 21.339-9.554 21.339-21.34v-47.229c0-11.785-9.554-21.34-21.339-21.34z"></path>
</symbol>
<symbol id="icon-privacy" viewBox="0 0 24 24" fill="currentColor">
<path d="M18 24c-.1 0-.2-.02-.294-.06-.232-.099-5.706-2.483-5.706-7.386v-4.018a.75.75 0 0 1 .509-.71l5.25-1.786a.75.75 0 0 1 .482 0l5.25 1.786a.75.75 0 0 1 .509.71v4.018c0 4.903-5.474 7.287-5.706 7.387A.768.768 0 0 1 18 24zm-4.5-10.927v3.48c0 3.333 3.456 5.337 4.5 5.865 1.044-.528 4.5-2.532 4.5-5.865v-3.48L18 11.542z"></path><path d="M17.75 19.5a.744.744 0 0 1-.53-.22l-2-2a.75.75 0 1 1 1.061-1.061l1.389 1.389 2.48-3.308a.75.75 0 1 1 1.199.901l-3 4a.75.75 0 0 1-.547.298l-.052.001zM10.59 21H2.75A2.752 2.752 0 0 1 0 18.25V2.75A2.752 2.752 0 0 1 2.75 0h11.5A2.752 2.752 0 0 1 17 2.75v5.43a.75.75 0 0 1-1.5 0V2.75c0-.689-.561-1.25-1.25-1.25H2.75c-.689 0-1.25.561-1.25 1.25v15.5c0 .689.561 1.25 1.25 1.25h7.84a.75.75 0 0 1 0 1.5z"></path><path d="M13.25 9.5h-9.5a.75.75 0 0 1 0-1.5h9.5a.75.75 0 0 1 0 1.5zM9.25 13.5h-5.5a.75.75 0 0 1 0-1.5h5.5a.75.75 0 0 1 0 1.5zM8.25 5.5h-4.5a.75.75 0 0 1 0-1.5h4.5a.75.75 0 0 1 0 1.5z"></path>
</symbol>
</defs>
</svg>
