<svg style="position: absolute; width: 0; height: 0; overflow: hidden;" version="1.1" xmlns="http://www.w3.org/2000/svg" xmlns:xlink="http://www.w3.org/1999/xlink">
<defs>
<symbol id="icon-mail" viewBox="0 0 512 512" fill="currentColor">
<path d="M467 76H45C20.137 76 0 96.262 0 121v270c0 24.885 20.285 45 45 45h422c24.655 0 45-20.03 45-45V121c0-24.694-20.057-45-45-45zm-6.302 30L287.82 277.967c-8.5 8.5-19.8 13.18-31.82 13.18s-23.32-4.681-31.848-13.208L51.302 106h409.396zM30 384.894V127.125L159.638 256.08 30 384.894zM51.321 406l129.587-128.763 22.059 21.943c14.166 14.166 33 21.967 53.033 21.967s38.867-7.801 53.005-21.939l22.087-21.971L460.679 406H51.321zM482 384.894 352.362 256.08 482 127.125v257.769z"></path>
</symbol>
<symbol id="icon-mapmarker" viewBox="0 0 64 64" fill="currentColor">
<path d="M32 0A24.032 24.032 0 0 0 8 24c0 17.23 22.36 38.81 23.31 39.72a.99.99 0 0 0 1.38 0C33.64 62.81 56 41.23 56 24A24.032 24.032 0 0 0 32 0zm0 35a11 11 0 1 1 11-11 11.007 11.007 0 0 1-11 11z"></path>
</symbol>
<symbol id="icon-clock" viewBox="0 0 24 24" fill="currentColor">
<path d="M11.994 0C5.381 0 0 5.381 0 11.994S5.381 23.99 11.994 23.99 23.99 18.607 23.99 11.994 18.607 0 11.994 0zm0 2c5.532 0 10.002 4.462 10.002 9.994s-4.47 10.004-10.002 10.004S2 17.526 2 11.994 6.462 2 11.994 2zm0 2.996A1 1 0 0 0 10.998 6v5.994a1 1 0 0 0 .322.738l4.211 4.215a.998.998 0 0 0 1.416 0 .998.998 0 0 0 0-1.416l-3.949-3.943V6a1 1 0 0 0-.996-1.004h-.008z"></path>
</symbol>
<symbol id="icon-phone" viewBox="0 0 32 32" fill="currentColor">
<path d="M29.393 23.36c-.874-.733-6-3.979-6.852-3.83-.4.071-.706.412-1.525 1.389a11.687 11.687 0 0 1-1.244 1.347 10.757 10.757 0 0 1-2.374-.88 14.7 14.7 0 0 1-6.784-6.786 10.757 10.757 0 0 1-.88-2.374 11.687 11.687 0 0 1 1.347-1.244c.976-.819 1.318-1.123 1.389-1.525.149-.854-3.1-5.978-3.83-6.852C8.334 2.243 8.056 2 7.7 2 6.668 2 2 7.772 2 8.52c0 .061.1 6.07 7.689 13.791C17.41 29.9 23.419 30 23.48 30c.748 0 6.52-4.668 6.52-5.7 0-.356-.243-.634-.607-.94zM23 15h2a8.009 8.009 0 0 0-8-8v2a6.006 6.006 0 0 1 6 6z"></path>
<path d="M28 15h2A13.015 13.015 0 0 0 17 2v2a11.013 11.013 0 0 1 11 11z"></path>
</symbol>
</defs>
</svg>
